<?xml version="1.0" encoding="UTF-8"?>
<svg xmlns="http://www.w3.org/2000/svg" xmlns:xlink="http://www.w3.org/1999/xlink" width="177.6pt" height="177.5pt" viewBox="0 0 177.6 177.5" version="1.1">
<g id="surface1">
<path style=" stroke:none;fill-rule:evenodd;fill:rgb(92.96875%,49.414063%,0%);fill-opacity:1;" d="M 88.878906 -0.0117188 C 137.738281 -0.0117188 177.621094 39.875 177.621094 88.730469 C 177.621094 137.589844 137.738281 177.476563 88.878906 177.476563 C 39.929688 177.476563 0.0390625 137.589844 0.0390625 88.730469 C 0.0390625 39.875 39.929688 -0.0117188 88.878906 -0.0117188 Z M 88.878906 -0.0117188 "/>
<path style=" stroke:none;fill-rule:evenodd;fill:rgb(100%,100%,100%);fill-opacity:1;" d="M 56.808594 100.722656 C 56.1875 102.589844 54.410156 103.566406 51.835938 103.566406 C 48.015625 103.566406 45.789063 101.167969 45.703125 96.816406 L 70.488281 96.816406 L 70.488281 95.925781 C 70.488281 83.136719 63.382813 75.585938 51.570313 75.585938 C 39.753906 75.585938 32.46875 82.691406 32.46875 94.0625 C 32.46875 104.898438 39.574219 112.003906 51.121094 112.003906 C 61.339844 112.003906 67.648438 108.097656 69.421875 100.722656 Z M 45.261719 89.976563 C 45.4375 85.976563 47.480469 83.667969 50.769531 83.667969 C 54.410156 83.667969 56.367188 85.800781 56.632813 89.976563 Z M 45.261719 89.976563 "/>
<path style=" stroke:none;fill-rule:evenodd;fill:rgb(100%,100%,100%);fill-opacity:1;" d="M 132.851563 93.796875 C 132.851563 105.078125 140.222656 112.003906 152.394531 112.003906 C 164.652344 112.003906 172.027344 105.078125 172.027344 93.796875 C 172.027344 82.515625 164.652344 75.585938 152.394531 75.585938 C 140.222656 75.585938 132.851563 82.515625 132.851563 93.796875 Z M 146.710938 93.796875 C 146.710938 87.753906 148.21875 85 152.394531 85 C 156.570313 85 158.164063 87.753906 158.164063 93.796875 C 158.164063 99.835938 156.570313 102.589844 152.394531 102.589844 C 148.21875 102.589844 146.710938 99.835938 146.710938 93.796875 Z M 146.710938 93.796875 "/>
<path style=" stroke:none;fill-rule:evenodd;fill:rgb(100%,100%,100%);fill-opacity:1;" d="M 124.679688 98.238281 L 124.679688 84.644531 L 131.074219 84.644531 L 131.074219 76.828125 L 124.679688 76.828125 L 124.679688 66.347656 L 111.175781 66.347656 L 111.175781 76.828125 L 106.378906 76.828125 L 106.378906 84.644531 L 111.175781 84.644531 L 111.175781 101.703125 C 111.175781 108.984375 114.371094 111.382813 122.722656 111.382813 C 125.390625 111.382813 128.230469 111.296875 131.164063 111.117188 L 131.164063 101.257813 C 130.453125 101.34375 129.828125 101.34375 129.203125 101.34375 C 125.921875 101.34375 124.679688 100.636719 124.679688 98.238281 Z M 124.679688 98.238281 "/>
<path style=" stroke:none;fill-rule:evenodd;fill:rgb(100%,100%,100%);fill-opacity:1;" d="M 71.824219 100.101563 C 72.445313 108.097656 78.039063 112.003906 88.789063 112.003906 C 100.339844 112.003906 106.289063 108.007813 106.289063 100.28125 C 106.289063 92.90625 101.757813 91.042969 91.898438 88.730469 C 87.722656 87.753906 85.59375 87.753906 85.59375 85.355469 C 85.59375 83.847656 86.746094 82.957031 89.144531 82.957031 C 91.539063 82.957031 93.140625 84.292969 93.320313 86.332031 L 105.136719 86.332031 C 104.335938 79.226563 98.914063 75.585938 88.96875 75.585938 C 78.308594 75.585938 72.710938 79.582031 72.710938 86.777344 C 72.710938 93.972656 77.507813 95.839844 87.722656 98.058594 C 91.363281 98.949219 93.230469 99.125 93.230469 101.613281 C 93.230469 103.390625 91.71875 104.457031 88.96875 104.457031 C 86.035156 104.457031 84.613281 103.035156 84.613281 100.101563 Z M 71.824219 100.101563 "/>
<path style=" stroke:none;fill-rule:evenodd;fill:rgb(100%,100%,100%);fill-opacity:1;" d="M 24.117188 98.238281 L 24.117188 84.644531 L 30.515625 84.644531 L 30.515625 76.828125 L 24.117188 76.828125 L 24.117188 66.347656 L 10.617188 66.347656 L 10.617188 76.828125 L 5.730469 76.828125 L 5.730469 84.644531 L 10.617188 84.644531 L 10.617188 101.703125 C 10.617188 108.984375 13.726563 111.382813 22.164063 111.382813 C 24.828125 111.382813 27.667969 111.296875 30.601563 111.117188 L 30.601563 101.257813 C 29.980469 101.34375 29.269531 101.34375 28.738281 101.34375 C 25.449219 101.34375 24.117188 100.636719 24.117188 98.238281 Z M 24.117188 98.238281 "/>
</g>
</svg>
